<svg version="1.1" id="Layer_1" xmlns="http://www.w3.org/2000/svg" xmlns:xlink="http://www.w3.org/1999/xlink" x="0px" y="0px"
	 width="100%" viewBox="0 0 225 225" enable-background="new 0 0 225 225" xml:space="preserve">
<path fill="#AFF9CD" opacity="1.000000" stroke="none" 
	d="
M1.000000,202.000000 
	C1.000000,143.312439 1.000000,84.624878 1.263160,25.241619 
	C5.976643,11.779140 15.289246,4.479227 28.000000,1.000000 
	C84.020897,1.000000 140.041794,1.000000 196.798096,1.244140 
	C215.853043,6.476606 224.993729,18.448105 224.994858,37.478565 
	C224.997894,88.790138 225.141907,140.102707 224.795654,191.411942 
	C224.755814,197.312790 222.730515,203.534027 220.288986,209.010788 
	C216.077225,218.458527 207.381180,222.878448 198.000000,226.000000 
	C141.312439,226.000000 84.624878,226.000000 27.212124,225.745667 
	C23.290222,224.193893 19.987885,223.106049 16.917227,221.558502 
	C8.734841,217.434723 4.565592,209.938934 1.000000,202.000000 
M124.182846,189.169785 
	C126.512398,189.454575 129.035965,190.472031 131.142380,189.914215 
	C162.546692,181.597900 182.412125,161.750153 190.119492,130.057053 
	C191.455078,124.564995 189.536255,122.203796 183.932724,122.106270 
	C177.110580,121.987534 170.284286,122.127029 163.460800,122.056786 
	C160.046936,122.021645 157.829880,123.310318 156.709869,126.703461 
	C151.783676,141.627701 141.707535,151.414780 126.980507,156.797043 
	C125.164558,157.460709 123.003952,160.211014 122.924950,162.075806 
	C122.573563,170.369995 122.921623,178.693802 123.100601,187.636871 
	C123.382889,187.944397 123.665169,188.251907 124.182846,189.169785 
M37.940727,92.564606 
	C25.758707,136.314667 52.689323,180.735138 97.193108,190.297928 
	C102.414879,191.419952 104.903694,189.656006 104.978340,184.505112 
	C105.082085,177.346954 104.961037,170.185791 105.022972,163.026672 
	C105.053169,159.536087 103.406799,157.660660 100.155212,156.440170 
	C72.355270,146.005600 61.321369,120.016479 73.324318,93.144814 
	C74.836044,89.760437 74.666656,87.234879 71.997284,84.651810 
	C67.092323,79.905441 62.364952,74.975975 57.482227,70.206070 
	C53.494656,66.310638 50.214870,66.482666 47.508938,71.499008 
	C43.978851,78.043182 41.204601,84.995071 37.940727,92.564606 
M108.900658,35.325615 
	C95.380676,36.297146 82.783974,40.123840 71.354675,47.519821 
	C65.963287,51.008621 65.699463,53.534271 70.261215,58.149597 
	C75.063492,63.008274 79.967850,67.766937 84.726074,72.667877 
	C87.021614,75.032265 89.308250,75.520660 92.292801,73.915108 
	C116.446800,60.921406 147.716751,72.594620 156.394394,99.835800 
	C157.612823,103.660759 160.031494,105.017593 163.866333,104.925354 
	C169.861298,104.781136 175.862305,104.894127 181.860764,104.888214 
	C190.335968,104.879852 191.834290,102.915955 189.719696,94.608749 
	C180.420639,58.077374 147.448380,33.590698 108.900658,35.325615 
M110.381332,88.938866 
	C109.247131,90.740433 108.529541,93.323860 106.898476,94.192986 
	C102.483948,96.545303 98.879745,99.243484 99.059425,104.685303 
	C99.254341,110.588730 103.396515,113.317924 108.364090,115.105263 
	C111.642174,116.284737 115.207413,116.925957 118.164146,118.637337 
	C119.828552,119.600708 121.575447,122.386086 121.350563,124.096260 
	C121.125931,125.804489 118.706512,128.102234 116.865120,128.545410 
	C112.394356,129.621399 107.981102,129.355179 104.973984,124.658432 
	C104.335320,123.660912 101.923874,123.798416 100.329185,123.412979 
	C100.238068,125.026405 99.468887,127.125008 100.201576,128.148956 
	C101.588135,130.086716 103.902161,131.337143 105.705711,133.008194 
	C106.999855,134.207245 108.027504,135.690170 109.290108,136.928070 
	C110.499504,138.113815 111.903214,140.072281 113.140701,140.012680 
	C114.687416,139.938202 116.268295,138.277054 117.611885,137.056000 
	C118.570404,136.184875 118.929253,134.321381 119.956863,133.914902 
	C125.102936,131.879303 128.457047,128.794937 128.053757,122.782913 
	C127.634087,116.526611 123.663651,113.405457 118.270691,111.527222 
	C115.291298,110.489578 112.060204,109.938408 109.361252,108.422508 
	C107.802811,107.547195 106.100311,105.095421 106.249786,103.523071 
	C106.401985,101.921906 108.498512,99.719719 110.179443,99.205711 
	C114.265472,97.956253 118.363060,97.832024 121.040489,102.540932 
	C121.627464,103.573280 123.949310,103.619217 125.472206,104.119415 
	C125.679527,102.541046 126.493423,100.696609 125.946259,99.449181 
	C125.200661,97.749374 123.620354,96.197990 122.027390,95.141922 
	C119.974167,93.780746 118.279739,92.907143 117.617043,89.903252 
	C116.900711,86.656258 113.844040,85.990082 110.381332,88.938866 
z"/>
<path fill="#FEFFFE" opacity="1.000000" stroke="none" 
	d="
M198.468658,226.000000 
	C207.381180,222.878448 216.077225,218.458527 220.288986,209.010788 
	C222.730515,203.534027 224.755814,197.312790 224.795654,191.411942 
	C225.141907,140.102707 224.997894,88.790138 224.994858,37.478565 
	C224.993729,18.448105 215.853043,6.476606 197.266754,1.244140 
	C206.651642,1.000000 216.303299,1.000000 225.951324,1.000006 
	C225.947693,76.000015 225.947693,151.000015 225.947693,226.000000 
	C216.909348,226.000000 207.923340,226.000000 198.468658,226.000000 
z"/>
<path fill="#FEFFFE" opacity="1.000000" stroke="none" 
	d="
M27.531338,1.000000 
	C15.289246,4.479227 5.976643,11.779140 1.263160,24.772961 
	C1.000000,17.069279 1.000000,9.138557 1.000000,1.000000 
	C9.686457,1.000000 18.374565,1.000000 27.531338,1.000000 
z"/>
<path fill="#FEFFFE" opacity="1.000000" stroke="none" 
	d="
M1.000000,202.468689 
	C4.565592,209.938934 8.734841,217.434723 16.917227,221.558502 
	C19.987885,223.106049 23.290222,224.193893 26.743467,225.745667 
	C18.409912,226.000000 9.819822,226.000000 1.000000,226.000000 
	C1.000000,218.313980 1.000000,210.625671 1.000000,202.468689 
z"/>
<path fill="#019C43" opacity="1.000000" stroke="none" 
	d="
M38.022930,92.168068 
	C41.204601,84.995071 43.978851,78.043182 47.508938,71.499008 
	C50.214870,66.482666 53.494656,66.310638 57.482227,70.206070 
	C62.364952,74.975975 67.092323,79.905441 71.997284,84.651810 
	C74.666656,87.234879 74.836044,89.760437 73.324318,93.144814 
	C61.321369,120.016479 72.355270,146.005600 100.155212,156.440170 
	C103.406799,157.660660 105.053169,159.536087 105.022972,163.026672 
	C104.961037,170.185791 105.082085,177.346954 104.978340,184.505112 
	C104.903694,189.656006 102.414879,191.419952 97.193108,190.297928 
	C52.689323,180.735138 25.758707,136.314667 38.022930,92.168068 
z"/>
<path fill="#029C43" opacity="1.000000" stroke="none" 
	d="
M109.361763,35.299706 
	C147.448380,33.590698 180.420639,58.077374 189.719696,94.608749 
	C191.834290,102.915955 190.335968,104.879852 181.860764,104.888214 
	C175.862305,104.894127 169.861298,104.781136 163.866333,104.925354 
	C160.031494,105.017593 157.612823,103.660759 156.394394,99.835800 
	C147.716751,72.594620 116.446800,60.921406 92.292801,73.915108 
	C89.308250,75.520660 87.021614,75.032265 84.726074,72.667877 
	C79.967850,67.766937 75.063492,63.008274 70.261215,58.149597 
	C65.699463,53.534271 65.963287,51.008621 71.354675,47.519821 
	C82.783974,40.123840 95.380676,36.297146 109.361763,35.299706 
z"/>
<path fill="#25CE71" opacity="1.000000" stroke="none" 
	d="
M123.016830,187.006912 
	C122.921623,178.693802 122.573563,170.369995 122.924950,162.075806 
	C123.003952,160.211014 125.164558,157.460709 126.980507,156.797043 
	C141.707535,151.414780 151.783676,141.627701 156.709869,126.703461 
	C157.829880,123.310318 160.046936,122.021645 163.460800,122.056786 
	C170.284286,122.127029 177.110580,121.987534 183.932724,122.106270 
	C189.536255,122.203796 191.455078,124.564995 190.119492,130.057053 
	C182.412125,161.750153 162.546692,181.597900 131.142380,189.914215 
	C129.035965,190.472031 126.512398,189.454575 123.974533,188.567551 
	C123.516418,187.645844 123.266624,187.326370 123.016830,187.006912 
z"/>
<path fill="#079E45" opacity="1.000000" stroke="none" 
	d="
M110.650436,88.656448 
	C113.844040,85.990082 116.900711,86.656258 117.617043,89.903252 
	C118.279739,92.907143 119.974167,93.780746 122.027390,95.141922 
	C123.620354,96.197990 125.200661,97.749374 125.946259,99.449181 
	C126.493423,100.696609 125.679527,102.541046 125.472206,104.119415 
	C123.949310,103.619217 121.627464,103.573280 121.040489,102.540932 
	C118.363060,97.832024 114.265472,97.956253 110.179443,99.205711 
	C108.498512,99.719719 106.401985,101.921906 106.249786,103.523071 
	C106.100311,105.095421 107.802811,107.547195 109.361252,108.422508 
	C112.060204,109.938408 115.291298,110.489578 118.270691,111.527222 
	C123.663651,113.405457 127.634087,116.526611 128.053757,122.782913 
	C128.457047,128.794937 125.102936,131.879303 119.956863,133.914902 
	C118.929253,134.321381 118.570404,136.184875 117.611885,137.056000 
	C116.268295,138.277054 114.687416,139.938202 113.140701,140.012680 
	C111.903214,140.072281 110.499504,138.113815 109.290108,136.928070 
	C108.027504,135.690170 106.999855,134.207245 105.705711,133.008194 
	C103.902161,131.337143 101.588135,130.086716 100.201576,128.148956 
	C99.468887,127.125008 100.238068,125.026405 100.329193,123.412979 
	C101.923874,123.798416 104.335320,123.660912 104.973984,124.658432 
	C107.981102,129.355179 112.394356,129.621399 116.865120,128.545410 
	C118.706512,128.102234 121.125931,125.804489 121.350563,124.096260 
	C121.575447,122.386086 119.828552,119.600708 118.164146,118.637337 
	C115.207413,116.925957 111.642174,116.284737 108.364090,115.105263 
	C103.396515,113.317924 99.254341,110.588730 99.059425,104.685303 
	C98.879745,99.243484 102.483948,96.545303 106.898476,94.192986 
	C108.529541,93.323860 109.247131,90.740433 110.650436,88.656448 
z"/>
<path fill="#19CC6C" opacity="1.000000" stroke="none" 
	d="
M123.058716,187.321899 
	C123.266624,187.326370 123.516418,187.645844 123.856827,188.262375 
	C123.665169,188.251907 123.382889,187.944397 123.058716,187.321899 
z"/>
</svg>